<svg width="183" height="160" viewBox="0 0 183 160" fill="none" xmlns="http://www.w3.org/2000/svg">
<path d="M150 37.5V112.5L75 150L0 112.5V37.5L75 0L150 37.5ZM54.3145 47C48.1945 47 43.0205 48.1426 38.793 50.4277C34.5901 52.6881 31.407 55.9052 29.2441 60.0781C27.0814 64.2261 26.0001 69.1565 26 74.8691C26 81.2278 27.0938 86.494 29.2812 90.667C31.4688 94.8151 34.5168 97.9075 38.4248 99.9443C42.3327 101.981 46.8795 103 52.0654 103C55.998 103 59.7592 102.702 63.3477 102.105C66.936 101.484 70.1192 100.69 72.8965 99.7217V70.3613H49.6328V81.7256H59.2549V90.2578C58.6158 90.4317 57.6694 90.5809 56.416 90.7051C55.1872 90.8293 54.1424 90.8906 53.2822 90.8906C50.677 90.8906 48.4527 90.2947 46.6094 89.1025C44.7905 87.8854 43.4019 86.1216 42.4434 83.8115C41.5094 81.4767 41.042 78.6203 41.042 75.2422C41.042 72.2864 41.4844 69.5914 42.3691 67.1572C43.254 64.6982 44.6677 62.736 46.6094 61.2705C48.5757 59.805 51.1689 59.0723 54.3887 59.0723C56.7973 59.0723 59.0466 59.3206 61.1357 59.8174C63.2248 60.2893 65.2401 61.0099 67.1816 61.9785L71.79 50.4277C69.5534 49.4342 66.9235 48.6146 63.9004 47.9688C60.8772 47.3229 57.6817 47 54.3145 47ZM83.8828 47.7822V102.255H98.4463V84.1846H102.538C106.372 84.1846 109.592 83.6623 112.197 82.6191C114.827 81.5759 116.929 80.1604 118.502 78.3721C120.1 76.5837 121.242 74.5468 121.931 72.2617C122.643 69.9765 123 67.5913 123 65.1074C123 59.5685 121.291 55.2965 117.875 52.291C114.483 49.2855 109.371 47.7822 102.538 47.7822H83.8828ZM102.206 59.668C104.32 59.668 105.881 60.2147 106.889 61.3076C107.896 62.3757 108.4 63.7666 108.4 65.4805C108.4 67.1196 108.069 68.4362 107.405 69.4297C106.766 70.3984 105.906 71.1066 104.824 71.5537C103.743 71.976 102.575 72.1865 101.321 72.1865H98.4463V59.668H102.206Z" fill="#A8F403"/>
<path d="M67.7568 143.384C67.1583 143.31 66.5927 143.055 66.0599 142.62C65.5407 142.178 65.0635 141.667 64.6283 141.087C64.193 140.508 63.817 139.921 63.5001 139.329C63.1754 138.723 62.9221 138.211 62.74 137.793C62.669 137.636 62.5493 137.344 62.3808 136.919C62.2182 136.473 62.0441 136.006 61.8585 135.518C61.6788 135.01 61.5114 134.539 61.3565 134.106C61.2076 133.652 61.1112 133.338 61.0675 133.166C60.591 131.497 60.31 130.094 60.2243 128.958C60.1523 127.814 60.2033 126.888 60.3773 126.179C60.5572 125.45 60.8379 124.914 61.2194 124.573C61.6009 124.232 62.0039 124.04 62.4286 123.997C62.8591 123.934 63.2784 123.993 63.6865 124.175C64.1082 124.35 64.45 124.605 64.7119 124.942C64.9798 125.257 65.135 125.627 65.1775 126.051C65.22 126.476 65.0804 126.896 64.7586 127.311C64.706 127.377 64.6329 127.454 64.5395 127.543C64.4519 127.61 64.3606 127.671 64.2653 127.724C64.1701 127.778 64.0846 127.818 64.0089 127.842C63.9392 127.846 63.8966 127.834 63.8812 127.807L62.6821 125.685C62.659 125.644 62.5727 125.666 62.423 125.75C62.287 125.827 62.1897 125.909 62.1311 125.996C61.8283 126.508 61.6623 127.167 61.6332 127.973C61.5964 128.766 61.6312 129.59 61.7376 130.445C61.8498 131.279 62.002 132.072 62.1942 132.825C62.3922 133.557 62.5784 134.125 62.7528 134.528C62.8238 134.686 62.9408 134.925 63.104 135.245C63.2672 135.566 63.4573 135.934 63.6743 136.35C63.8972 136.744 64.1317 137.159 64.3776 137.595C64.6236 138.03 64.8581 138.445 65.081 138.839C65.3175 139.226 65.5348 139.579 65.7329 139.898C65.9233 140.203 66.0675 140.426 66.1657 140.568C66.2964 140.8 66.496 141.01 66.7644 141.199C67.0252 141.375 67.3094 141.528 67.6169 141.66C67.9167 141.778 68.2225 141.874 68.5341 141.949C68.8381 142.011 69.1016 142.032 69.3246 142.014C69.9178 141.984 70.445 141.758 70.9064 141.336C71.3814 140.906 71.7735 140.361 72.0829 139.702C72.4059 139.035 72.6556 138.301 72.8319 137.502C73.0083 136.702 73.1051 135.921 73.1223 135.157C73.1532 134.386 73.0926 133.675 72.9407 133.025C72.8024 132.368 72.5772 131.858 72.2649 131.496C71.7232 131.712 71.2275 132.01 70.778 132.39C70.3208 132.756 69.8751 133.142 69.441 133.549C69.0204 133.948 68.5854 134.338 68.1359 134.717C67.6786 135.083 67.1724 135.378 66.617 135.602C66.5437 135.536 66.4695 135.452 66.3944 135.351C66.3329 135.242 66.2888 135.133 66.2622 135.022C66.2279 134.898 66.2149 134.78 66.2232 134.667C66.2451 134.547 66.299 134.436 66.3847 134.334C66.8745 134.057 67.3648 133.654 67.8557 133.126C68.3467 132.597 68.8406 132.058 69.3374 131.508C69.8343 130.958 70.33 130.453 70.8244 129.995C71.3189 129.536 71.8116 129.248 72.3025 129.132C72.8146 129.848 73.2193 130.723 73.5166 131.758C73.814 132.792 73.9871 133.861 74.0361 134.964C74.085 136.067 74.0003 137.155 73.7819 138.23C73.5772 139.297 73.2228 140.242 72.7188 141.065C72.2071 141.875 71.5394 142.503 70.7155 142.951C69.9052 143.391 68.919 143.535 67.7568 143.384ZM90.551 139.846C90.0803 139.807 89.6692 139.635 89.318 139.331C88.9803 139.019 88.6876 138.628 88.4399 138.158C88.1921 137.688 87.9834 137.16 87.8138 136.574C87.6518 136.001 87.5179 135.431 87.4121 134.862C87.3063 134.294 87.2266 133.756 87.1728 133.248C87.1191 132.74 87.0804 132.322 87.0567 131.994C87.042 131.841 87.0228 131.601 86.9992 131.273C86.9756 130.945 86.9531 130.572 86.9319 130.154L86.7992 127.537C86.7779 127.118 86.7623 126.741 86.7523 126.405C86.7423 126.07 86.7367 125.822 86.7355 125.661C86.4423 124.983 86.1102 124.507 85.7395 124.232C85.3823 123.949 85.0224 123.82 84.6599 123.846C84.2973 123.871 83.9448 124.026 83.6024 124.309C83.2735 124.584 82.9733 124.942 82.7018 125.383C82.4439 125.816 82.2274 126.306 82.0523 126.854C81.883 127.38 81.7913 127.917 81.777 128.463C81.7339 128.577 81.6833 128.821 81.6253 129.195C81.5596 129.555 81.4876 129.999 81.4095 130.528C81.3237 131.043 81.2231 131.612 81.1077 132.233C81.0059 132.847 80.8866 133.462 80.7499 134.077C80.6192 134.672 80.4798 135.235 80.3319 135.767C80.184 136.3 80.0142 136.746 79.8225 137.105C79.6444 137.457 79.4504 137.701 79.2405 137.838C79.0441 137.967 78.8321 137.925 78.6044 137.713C78.5831 137.707 78.5465 137.674 78.4944 137.613C78.456 137.545 78.4176 137.477 78.3791 137.409C78.333 137.328 78.2907 137.253 78.2523 137.185C78.2275 137.109 78.2103 137.047 78.2009 136.998C78.1512 136.847 78.0442 136.531 77.8798 136.049C77.7291 135.56 77.5429 134.992 77.3212 134.346C77.1131 133.692 76.8887 132.993 76.6481 132.249C76.4075 131.506 76.1763 130.811 75.9546 130.165C75.7465 129.51 75.571 128.946 75.4279 128.47C75.2772 127.981 75.1838 127.657 75.1477 127.498C75.1057 127.36 75.1019 127.147 75.1362 126.858C75.1706 126.57 75.2445 126.303 75.3581 126.06C75.4717 125.816 75.6208 125.651 75.8053 125.565C76.0034 125.471 76.2415 125.543 76.5194 125.781C76.4987 126.061 76.5229 126.47 76.592 127.005C76.6611 127.54 76.761 128.13 76.8916 128.774C77.0358 129.41 77.1993 130.08 77.3819 130.785C77.5569 131.476 77.7408 132.135 77.9335 132.761C78.1398 133.381 78.3571 133.94 78.5853 134.439C78.8058 134.925 79.0163 135.281 79.2168 135.509C79.35 134.411 79.5243 133.227 79.7398 131.956C79.9552 130.686 80.2111 129.455 80.5076 128.265C80.804 127.074 81.1513 125.99 81.5495 125.011C81.9612 124.025 82.4271 123.277 82.947 122.768C83.4805 122.251 84.0785 122.039 84.7408 122.131C85.4091 122.202 86.1587 122.703 86.9895 123.633L88.2798 120.104L89.3409 119.505C89.6786 119.817 89.8178 120.079 89.7586 120.292C89.7131 120.497 89.5909 120.71 89.3922 120.93C89.1857 121.136 88.9598 121.371 88.7143 121.636C88.4748 121.879 88.3298 122.194 88.2795 122.581C88.2428 122.961 88.3539 123.428 88.6129 123.981C88.8719 124.535 89.4035 125.221 90.2077 126.041C90.7825 126.614 91.3076 127.241 91.783 127.924C92.272 128.599 92.6687 129.317 92.9732 130.078C93.1092 130.414 93.2387 130.897 93.3616 131.528C93.5058 132.164 93.6072 132.852 93.6656 133.59C93.7241 134.329 93.7272 135.081 93.6751 135.846C93.6229 136.612 93.483 137.301 93.2552 137.914C93.041 138.52 92.7122 139.002 92.2686 139.36C91.8326 139.732 91.2601 139.894 90.551 139.846ZM89.8948 137.875C90.2957 138.33 90.657 138.557 90.9788 138.554C91.3141 138.544 91.5989 138.365 91.8331 138.018C92.0674 137.67 92.2422 137.185 92.3576 136.564C92.4866 135.934 92.5355 135.243 92.5043 134.489C92.4866 133.727 92.3829 132.924 92.1932 132.08C92.0111 131.25 91.7291 130.449 91.3472 129.678C90.9788 128.899 90.5055 128.188 89.9272 127.546C89.3411 126.89 88.6392 126.362 87.8213 125.963C87.6391 126.371 87.5261 126.901 87.4822 127.554C87.4384 128.207 87.4466 128.921 87.5068 129.694C87.5806 130.46 87.6911 131.259 87.8383 132.091C87.9778 132.91 88.1504 133.692 88.3561 134.437C88.5831 135.188 88.824 135.868 89.0788 136.478C89.3472 137.08 89.6192 137.546 89.8948 137.875ZM100.38 125.893C100.1 125.333 99.7908 124.754 99.4526 124.156C99.1203 123.536 98.7676 122.927 98.3945 122.331C98.0214 121.734 97.6317 121.155 97.2255 120.595C96.8252 120.014 96.4169 119.482 96.0006 118.999C95.249 118.114 94.5775 117.497 93.9862 117.149C93.4007 116.78 92.9371 116.674 92.5952 116.831C92.2593 116.967 92.0791 117.347 92.0548 117.971C92.0364 118.574 92.2252 119.401 92.6214 120.451C92.6787 120.616 92.7754 120.866 92.9113 121.202C93.0473 121.538 93.1996 121.919 93.3681 122.344C93.5502 122.762 93.7408 123.21 93.9401 123.69C94.1453 124.148 94.3321 124.59 94.5006 125.015C94.6827 125.433 94.8485 125.806 94.9981 126.134C95.1477 126.462 95.258 126.705 95.3289 126.863C95.3703 127.126 95.2869 127.344 95.0787 127.515C94.8841 127.679 94.6723 127.781 94.4435 127.821L87.7541 117.602C87.6405 117.433 87.5968 117.26 87.6228 117.084C87.6412 116.894 87.7001 116.744 87.7994 116.634C87.8911 116.51 88.0136 116.441 88.1667 116.426C88.3199 116.412 88.4707 116.488 88.6191 116.655L91.1205 119.415C90.9657 118.156 90.946 117.216 91.0614 116.594C91.1827 115.952 91.396 115.535 91.7012 115.345C92.0064 115.154 92.3902 115.135 92.8527 115.286C93.3151 115.438 93.7956 115.669 94.2941 115.979C94.7986 116.268 95.3086 116.599 95.8243 116.972C96.3323 117.331 96.8018 117.622 97.2329 117.845C96.7069 115.612 96.5592 113.874 96.79 112.631C97.0268 111.366 97.5139 110.624 98.2514 110.405C99.0025 110.178 99.9488 110.487 101.09 111.332C102.224 112.163 103.445 113.545 104.753 115.48C104.957 115.778 105.212 116.181 105.518 116.69C105.816 117.186 106.103 117.679 106.38 118.168C106.657 118.658 106.892 119.09 107.086 119.465C107.272 119.827 107.359 120.029 107.348 120.071L107.197 120.614L106.091 120.324C105.772 119.571 105.378 118.824 104.907 118.086C104.441 117.326 103.928 116.593 103.368 115.886C102.821 115.172 102.258 114.494 101.68 113.852C101.101 113.21 100.55 112.615 100.025 112.068C99.5275 111.631 99.1195 111.449 98.8013 111.521C98.4754 111.58 98.2234 111.785 98.0454 112.137C97.8732 112.467 97.7753 112.881 97.7516 113.379C97.7202 113.864 97.7393 114.311 97.8091 114.72C97.8428 114.97 97.8945 115.3 97.9642 115.709C98.0475 116.111 98.1309 116.512 98.2142 116.914C98.2976 117.315 98.3714 117.668 98.4359 117.973C98.5003 118.278 98.5372 118.454 98.5467 118.503C98.6306 118.778 98.8009 119.238 99.0575 119.883C99.3277 120.52 99.6141 121.202 99.9169 121.928C100.233 122.647 100.537 123.327 100.829 123.97C101.112 124.6 101.317 125.041 101.441 125.293C101.557 125.497 101.568 125.644 101.474 125.732C101.381 125.821 101.251 125.877 101.084 125.899C100.903 125.929 100.669 125.927 100.38 125.893ZM121.253 106.615C121.204 106.75 121.125 106.974 121.014 107.288C120.91 107.58 120.776 107.898 120.612 108.242C120.453 108.565 120.255 108.866 120.017 109.144C119.793 109.414 119.529 109.581 119.224 109.646C119.092 109.666 118.969 109.655 118.855 109.612C118.754 109.561 118.664 109.496 118.583 109.416C118.508 109.315 118.439 109.21 118.378 109.101C118.33 108.984 118.293 108.871 118.266 108.76L120.781 104.54L117.379 98.52C117.31 98.3976 117.335 98.2669 117.454 98.1279C117.565 97.9753 117.709 97.8491 117.886 97.7491C118.063 97.6492 118.245 97.591 118.433 97.5744C118.614 97.5443 118.738 97.5905 118.808 97.7129L121.609 102.671C122.012 102.049 122.362 101.367 122.66 100.624C122.964 99.8599 123.179 99.1284 123.304 98.4294C123.436 97.709 123.459 97.0676 123.375 96.5052C123.29 95.9428 123.063 95.5414 122.694 95.3013C122.318 95.0475 121.777 95.012 121.073 95.1946C120.374 95.356 119.474 95.811 118.371 96.5596C118.142 96.7251 117.871 96.9767 117.56 97.3144C117.248 97.6521 116.917 98.0361 116.568 98.4667C116.219 98.8972 115.861 99.3422 115.492 99.8016C115.137 100.253 114.795 100.68 114.466 101.082C114.128 101.47 113.82 101.797 113.539 102.063C113.251 102.315 113.017 102.456 112.837 102.487C112.747 102.232 112.727 101.974 112.776 101.713C112.819 101.438 112.899 101.168 113.019 100.903C113.152 100.631 113.303 100.374 113.473 100.135C113.643 99.8954 113.811 99.684 113.976 99.5007C114.652 98.7598 115.236 98.1249 115.727 97.5963C116.218 97.0676 116.722 96.5943 117.239 96.1762C117.771 95.7504 118.366 95.3599 119.027 95.0045C119.68 94.6356 120.51 94.2471 121.518 93.8392C122.388 93.5992 123.057 93.5617 123.528 93.7267C124.011 93.8841 124.348 94.1784 124.538 94.6096C124.728 95.0407 124.804 95.5721 124.766 96.2038C124.72 96.8218 124.61 97.485 124.436 98.1935C124.268 98.8807 124.056 99.5842 123.798 100.304C123.555 101.016 123.322 101.668 123.1 102.26C122.878 102.852 122.697 103.358 122.558 103.778C122.432 104.19 122.389 104.447 122.429 104.55L125.312 111.32L125.282 111.553C125.268 111.686 125.237 111.838 125.19 112.009C125.148 112.158 125.079 112.305 124.981 112.45C124.897 112.587 124.788 112.648 124.655 112.634L121.253 106.615ZM134.526 106.76C134.562 107.332 134.506 107.66 134.356 107.745C134.214 107.843 134 107.766 133.715 107.515C133.45 107.269 133.126 106.887 132.743 106.368C132.374 105.841 131.983 105.245 131.572 104.58C131.174 103.907 130.77 103.193 130.361 102.437C129.952 101.682 129.565 100.949 129.2 100.24C128.849 99.523 128.539 98.8635 128.271 98.2614C127.994 97.6457 127.791 97.1593 127.661 96.802C127.537 96.4235 127.501 96.2014 127.554 96.1358C127.607 96.0702 127.778 96.2154 128.069 96.5714C128.32 95.999 128.617 95.4277 128.958 94.8576C129.293 94.2739 129.671 93.737 130.094 93.2468C130.523 92.7352 130.994 92.2985 131.508 91.9367C132.035 91.5671 132.599 91.3111 133.2 91.1686C133.355 91.3147 133.477 91.5149 133.567 91.7693C133.656 92.0236 133.612 92.2462 133.433 92.4372C133.192 92.5194 132.895 92.6604 132.541 92.8603C132.187 93.0601 131.829 93.2987 131.465 93.5761C131.101 93.8534 130.756 94.1647 130.431 94.5101C130.106 94.8554 129.838 95.2223 129.626 95.6109C129.421 95.9781 129.297 96.3622 129.255 96.7632C129.218 97.1429 129.307 97.5232 129.522 97.9041L134.526 106.76ZM142.705 101.035C142.081 100.723 141.562 100.281 141.148 99.7073C140.726 99.12 140.357 98.467 140.041 97.7484C139.725 97.0298 139.445 96.2813 139.203 95.503C138.96 94.7246 138.713 93.985 138.461 93.2842C138.2 92.5697 137.92 91.9298 137.618 91.3643C137.309 90.7853 136.937 90.3494 136.502 90.0566C136.27 89.9004 136.063 89.883 135.88 90.0042C135.704 90.1041 135.522 90.2428 135.335 90.4202C135.154 90.5763 134.951 90.709 134.725 90.8184C134.514 90.9201 134.257 90.8946 133.955 90.742C133.938 90.6799 133.954 90.5811 134.003 90.4457C134.031 90.3044 134.061 90.2154 134.095 90.1787C135.219 89.3101 136.312 88.8628 137.374 88.8369C138.443 88.7897 139.444 89.0223 140.38 89.5346C141.308 90.0332 142.145 90.736 142.89 91.6427C143.65 92.5417 144.282 93.5032 144.789 94.527C145.296 95.5508 145.662 96.5642 145.888 97.5673C146.106 98.5567 146.149 99.3942 146.015 100.08C145.882 100.765 145.549 101.223 145.015 101.453C144.48 101.683 143.711 101.543 142.705 101.035ZM143.363 99.7209C143.4 99.754 143.471 99.7854 143.578 99.8149C143.684 99.8445 143.794 99.8809 143.908 99.9241C144.036 99.9596 144.153 99.9921 144.26 100.022C144.359 100.038 144.425 100.045 144.46 100.043C144.802 99.473 144.957 98.8739 144.925 98.2458C144.893 97.6177 144.729 96.9929 144.431 96.3712C144.148 95.7419 143.767 95.1316 143.289 94.5401C142.817 93.9273 142.313 93.3687 141.777 92.8641C141.24 92.3596 140.697 91.9219 140.146 91.551C139.609 91.1724 139.133 90.8852 138.717 90.6894C138.804 90.8739 138.93 91.1614 139.097 91.5517C139.264 91.9421 139.457 92.38 139.678 92.8656C139.898 93.3512 140.127 93.8678 140.365 94.4155C140.603 94.9632 140.829 95.4905 141.044 95.9973C141.264 96.4829 141.458 96.9209 141.624 97.3112C141.791 97.7016 141.918 97.989 142.004 98.1736C142.067 98.3173 142.156 98.4737 142.269 98.6429C142.389 98.7908 142.515 98.9348 142.648 99.075C142.781 99.2151 142.91 99.3485 143.036 99.4751C143.167 99.5804 143.276 99.6623 143.363 99.7209Z" fill="black"/>
</svg>
